# xmcd
# 
# Track frame offsets:
#     150
#     14500
#     28261
#     42758
#     57401
#     69633
#     82762
#     96885
#     110969
#     124823
#     138803
#     152501
#     166365
#     180403
# 
# Disc length: 2654
# 
# Revision: 4
# Processed by: cddbd v1.5.2PL0 Copyright (c) Steve Scherf et al.
# Submitted via: BonkEnc v1.0.6
# 
DISCID=b60a5c0e
DTITLE=Jorge and Mateus - Aí Já Era
DYEAR=2010
DGENRE=Sertenajo
TTITLE0=Seu Astral
TTITLE1=Amo Noite e Dia
TTITLE2=Chove, Chove
TTITLE3=Tempo Ao Tempo
TTITLE4=Se Eu Chorar
TTITLE5=Esquece o Medo e Vem
TTITLE6=Cilada
TTITLE7=Volta Pra Minha VIda
TTITLE8=Refém
TTITLE9=Mil Anos
TTITLE10=Alguém No Seu Lugar
TTITLE11=Pra Ter o Seu Amor
TTITLE12=Vestígios
TTITLE13=Aí Já Era
EXTD=YEAR: 2011
EXTT0=
EXTT1=
EXTT2=
EXTT3=
EXTT4=
EXTT5=
EXTT6=
EXTT7=
EXTT8=
EXTT9=
EXTT10=
EXTT11=
EXTT12=
EXTT13=
PLAYORDER=
